<svg xmlns="http://www.w3.org/2000/svg" viewBox="0 0 600 200" width="600" height="200" role="img" aria-label="Install the Anyshift agent plugin so Cursor, Codex, VS Code, or Claude Code query the production graph over Graph MCP">
  <title>Coding agent queries the live production graph through Graph MCP</title>
  <rect x="0" y="0" width="600" height="200" fill="#F5F2EC"/>

  <rect x="24" y="24" width="268" height="152" fill="#1b2b41"/>
  <circle cx="44" cy="44" r="4" fill="#e07a5f"/>
  <circle cx="58" cy="44" r="4" fill="#d6c7b1"/>
  <circle cx="72" cy="44" r="4" fill="#7ec8d8"/>
  <text x="44" y="72" font-family="DM Sans, Arial, sans-serif" font-size="11" fill="#7ec8d8" font-weight="700">agent-plugin</text>
  <text x="44" y="96" font-family="Fira Code, Menlo, monospace" font-size="11" fill="#f5f1e8">resolve_resource</text>
  <text x="44" y="114" font-family="Fira Code, Menlo, monospace" font-size="11" fill="#f5f1e8">get_blast_radius</text>
  <text x="44" y="132" font-family="Fira Code, Menlo, monospace" font-size="11" fill="#f5f1e8">get_recent_changes</text>
  <text x="44" y="156" font-family="DM Sans, Arial, sans-serif" font-size="10" fill="#9C958E">Cursor / Codex / VS Code</text>

  <path d="M300 100 H348" fill="none" stroke="#0A8F9E" stroke-width="2"/>
  <polyline points="340,94 348,100 340,106" fill="none" stroke="#0A8F9E" stroke-width="2" stroke-linecap="round" stroke-linejoin="round"/>

  <rect x="356" y="24" width="220" height="152" fill="#f5f1e8" stroke="#1b2b41" stroke-width="1.5"/>
  <rect x="356" y="24" width="220" height="26" fill="#1b2b41"/>
  <text x="466" y="42" font-family="DM Sans, Arial, sans-serif" font-size="12" fill="#7ec8d8" text-anchor="middle" font-weight="700">graph evidence</text>

  <rect x="376" y="64" width="40" height="40" fill="#1b2b41"/>
  <path d="M386 78 L396 78" fill="none" stroke="#7ec8d8" stroke-width="2.5" stroke-linecap="butt"/>
  <path d="M386 78 L391 90" fill="none" stroke="#7ec8d8" stroke-width="2.5" stroke-linecap="butt"/>
  <path d="M396 78 L391 90" fill="none" stroke="#7ec8d8" stroke-width="2.5" stroke-linecap="butt"/>

  <text x="430" y="80" font-family="DM Sans, Arial, sans-serif" font-size="12" fill="#1b2b41" font-weight="700">checkout-api</text>
  <text x="430" y="98" font-family="DM Sans, Arial, sans-serif" font-size="11" fill="#9C958E">12 in blast radius</text>

  <rect x="376" y="118" width="180" height="40" fill="#FAF8F3" stroke="#E0D7C7" stroke-width="1"/>
  <text x="388" y="136" font-family="DM Sans, Arial, sans-serif" font-size="10" fill="#9C958E">read-only, one project</text>
  <text x="388" y="152" font-family="DM Sans, Arial, sans-serif" font-size="11" fill="#0A8F9E">graph.anyshift.io/mcp</text>
</svg>
